<svg xmlns="http://www.w3.org/2000/svg" viewBox="0 0 24 24" x="0px" y="0px">
    <g data-name="Layer 2">
        <path d="M5.74,20.78,6,21H18l.27-.22A9.91,9.91,0,0,0,22,13,10,10,0,0,0,2,13,9.91,9.91,0,0,0,5.74,20.78ZM12,18a2,2,0,0,1,1.72,1H10.28A2,2,0,0,1,12,18Zm5.28,1H15.86A4,4,0,0,0,13,16.14V10H11v6.14A4,4,0,0,0,8.14,19H6.72a7.9,7.9,0,0,1-2.65-5H6V12H4.07A8,8,0,0,1,5.69,8.1L7.05,9.46,8.46,8.05,7.1,6.69A8,8,0,0,1,11,5.07V7h2V5.07a8,8,0,0,1,3.9,1.62L15.54,8.05l1.41,1.41L18.31,8.1A8,8,0,0,1,19.93,12H18v2h1.93A7.9,7.9,0,0,1,17.28,19Z"/>
    </g>
</svg>