<svg xmlns="http://www.w3.org/2000/svg" viewBox="0 0 48 48" fill="none" x="0px" y="0px">
    <path fill-rule="evenodd" clip-rule="evenodd" d="M15.6261 14.3946C11.9279 14.3946 8.86758 17.0791 8.05803 20.4333L8.04717 20.4783L8.03957 20.5239C7.76871 22.1505 8.9182 23.5783 10.5731 23.5783L20.6792 23.5783C22.3545 23.5783 23.4869 22.0776 23.2106 20.5117L23.2049 20.4794L23.1975 20.4474C22.3851 16.9073 19.2964 14.3946 15.6261 14.3946ZM10.5763 20.9793C10.5756 20.9882 10.5754 20.996 10.5754 21.0026L20.6758 21.0026C20.6766 20.9973 20.6772 20.9892 20.6764 20.978C20.1129 18.6147 18.0621 16.9703 15.6261 16.9703C13.2231 16.9703 11.1484 18.7252 10.5763 20.9793Z" fill="black"/>
    <path fill-rule="evenodd" clip-rule="evenodd" d="M27.3151 24.1885C26.4983 24.1885 25.7668 24.5398 25.2883 25.1476C24.8186 25.7442 24.6514 26.5112 24.7827 27.2558L24.7884 27.2882L24.7958 27.3202C25.6073 30.8562 28.6443 33.3757 32.3705 33.3757C36.0704 33.3757 39.1321 30.69 39.942 27.3343L39.9528 27.2894L39.9604 27.2437C40.2314 25.6166 39.0816 24.1885 37.4263 24.1885H27.3151ZM32.3705 30.8C29.8896 30.8 27.8801 29.159 27.3163 26.7871C27.3154 26.7784 27.315 26.7708 27.315 26.7642H37.4246C37.4246 26.771 37.4244 26.7791 37.4237 26.7883C36.8513 29.044 34.7752 30.8 32.3705 30.8Z" fill="black"/>
    <path fill-rule="evenodd" clip-rule="evenodd" d="M20.5557 24.3545C22.1218 24.0782 23.6223 25.2108 23.6223 26.886V36.9928C23.6223 38.6475 22.1947 39.7973 20.568 39.5264L20.5223 39.5188L20.4774 39.5079C17.1233 38.6983 14.439 35.6377 14.439 31.9394C14.439 28.269 16.9515 25.1801 20.4914 24.3676L20.5234 24.3602L20.5557 24.3545ZM21.0221 26.8887C18.6591 27.4523 17.0147 29.5031 17.0147 31.9394C17.0147 34.3427 18.7695 36.4176 21.0234 36.9897C21.0323 36.9903 21.04 36.9906 21.0466 36.9905V26.8892C21.0413 26.8885 21.0332 26.8879 21.0221 26.8887Z" fill="black"/>
    <path fill-rule="evenodd" clip-rule="evenodd" d="M27.7961 8.03958C26.1694 7.76866 24.7418 8.91841 24.7418 10.5732V20.6799C24.7418 22.3551 26.2423 23.4878 27.8084 23.2114L27.8407 23.2057L27.8727 23.1984C31.4127 22.3859 33.9251 19.2969 33.9251 15.6265C33.9251 11.9282 31.2408 8.86767 27.8868 8.05804L27.8418 8.04718L27.7961 8.03958ZM27.3175 10.5754C27.3241 10.5754 27.3319 10.5756 27.3407 10.5763C29.5946 11.1484 31.3494 13.2232 31.3494 15.6265C31.3494 18.0629 29.705 20.1137 27.342 20.6773C27.3309 20.6781 27.3228 20.6775 27.3175 20.6767V10.5754Z" fill="black"/>
</svg>